<svg width="32" height="32" viewBox="0 0 32 32" fill="none" xmlns="http://www.w3.org/2000/svg">
<path d="M16 2.66675C8.63996 2.66675 2.66663 8.64008 2.66663 16.0001C2.66663 23.3601 8.63996 29.3334 16 29.3334C23.36 29.3334 29.3333 23.3601 29.3333 16.0001C29.3333 8.64008 23.36 2.66675 16 2.66675ZM21.1733 11.0534L13.3333 18.8934L10.8266 16.3867C10.3066 15.8667 9.46663 15.8667 8.94663 16.3867C8.42663 16.9067 8.42663 17.7467 8.94663 18.2667L12.4 21.7201C12.92 22.2401 13.76 22.2401 14.28 21.7201L23.0666 12.9334C23.5866 12.4134 23.5866 11.5734 23.0666 11.0534C22.5466 10.5334 21.6933 10.5334 21.1733 11.0534Z" fill="#5199FF"/>
<path d="M21.1733 11.0533L13.3333 18.8933L10.8266 16.3867C10.3066 15.8667 9.46664 15.8667 8.94664 16.3867C8.42664 16.9067 8.42664 17.7467 8.94664 18.2667L12.4 21.72C12.92 22.24 13.76 22.24 14.28 21.72L23.0666 12.9333C23.5866 12.4133 23.5866 11.5733 23.0666 11.0533C22.5466 10.5333 21.6933 10.5333 21.1733 11.0533Z" fill="#F7F8F9"/>
</svg>
