<svg width="36" height="36" viewBox="0 0 36 36" fill="none" xmlns="http://www.w3.org/2000/svg">
<path d="M29.4904 6.25087C25.5304 3.55087 20.6404 4.81087 18.0004 7.90087C15.3604 4.81087 10.4704 3.53587 6.51044 6.25087C4.41044 7.69087 3.09044 10.1209 3.00044 12.6859C2.79044 18.5059 7.95044 23.1709 15.8254 30.3259L15.9754 30.4609C17.1154 31.4959 18.8704 31.4959 20.0104 30.4459L20.1754 30.2959C28.0504 23.1559 33.1954 18.4909 33.0004 12.6709C32.9104 10.1209 31.5904 7.69087 29.4904 6.25087ZM18.1504 28.0909L18.0004 28.2409L17.8504 28.0909C10.7104 21.6259 6.00044 17.3509 6.00044 13.0159C6.00044 10.0159 8.25044 7.76587 11.2504 7.76587C13.5604 7.76587 15.8104 9.25087 16.6054 11.3059H19.4104C20.1904 9.25087 22.4404 7.76587 24.7504 7.76587C27.7504 7.76587 30.0004 10.0159 30.0004 13.0159C30.0004 17.3509 25.2904 21.6259 18.1504 28.0909Z" fill="#00D282"/>
</svg>
