<svg width="18" height="16" viewBox="0 0 18 16" fill="none" xmlns="http://www.w3.org/2000/svg">
<path d="M8.99996 11.3333C10.3807 11.3333 11.5 10.214 11.5 8.83333C11.5 7.45262 10.3807 6.33333 8.99996 6.33333C7.61925 6.33333 6.49996 7.45262 6.49996 8.83333C6.49996 10.214 7.61925 11.3333 8.99996 11.3333Z" fill="black"/>
<path d="M15.6666 2.16667H13.025L11.9916 1.04167C11.6833 0.7 11.2333 0.5 10.7666 0.5H7.23329C6.76663 0.5 6.31663 0.7 5.99996 1.04167L4.97496 2.16667H2.33329C1.41663 2.16667 0.666626 2.91667 0.666626 3.83333V13.8333C0.666626 14.75 1.41663 15.5 2.33329 15.5H15.6666C16.5833 15.5 17.3333 14.75 17.3333 13.8333V3.83333C17.3333 2.91667 16.5833 2.16667 15.6666 2.16667ZM8.99996 13C6.69996 13 4.83329 11.1333 4.83329 8.83333C4.83329 6.53333 6.69996 4.66667 8.99996 4.66667C11.3 4.66667 13.1666 6.53333 13.1666 8.83333C13.1666 11.1333 11.3 13 8.99996 13Z" fill="black"/>
</svg>
